<svg xmlns="http://www.w3.org/2000/svg" viewBox="0 0 1058 300" fill="#ff0000"><path fill-rule="evenodd" clip-rule="evenodd" d="M109.9 39.3L59.6 0H160.3L109.9 39.3ZM54 83L1.19995 41.8L54 0.5L106.8 41.8L54 83ZM165.8 87.9L218.6 129.2L165.8 170.4L113 129.2L165.8 87.9ZM218.6 216.6L165.8 175.3L113 216.6L165.8 257.8L218.6 216.6ZM162.7 172.9L111.8 212.6V133.1L162.7 172.9ZM0 125.2L50.9 85.5L0 45.7V125.2ZM219.8 45.7V125.2L169 85.5L219.8 45.7ZM218.6 41.8L165.8 0.5L113 41.8L165.8 83L218.6 41.8ZM219.8 220.5L169 260.2L219.8 300V220.5ZM720.5 129.2C720.5 101.1 740.1 79.2 770.4 79.2C791.1 79.2 806.5 89.8 813.5 103.8L801.7 110.6C797 99.8 785.7 92.5 770.9 92.5C748.1 92.5 734.5 108.9 734.5 129.2C734.5 149.5 748.5 165.9 771.3 165.9C786.4 165.9 797.7 158.7 802.4 147.8L814.2 154.6C807.3 168.6 791.8 179.2 770.9 179.2C740.5 179.2 720.5 157.2 720.5 129.2ZM414.5 177.7V176.9L388.2 138.3C400.3 134.4 408.9 124.1 408.9 110.5C408.9 92.8 394.6 80.6 377 80.6H325.6V177.8H339.5V140H373.8L399.5 177.7H414.5ZM376.4 126.9H339.5V93.9H376.4C386.7 93.9 395 100.1 395 110.4C395 120.7 386.7 126.9 376.4 126.9ZM439.7 80.6V138.5C439.7 167.6 460.3 179.2 482.7 179.2C505.2 179.2 525.8 167.7 525.8 138.5V80.6H511.9V138.5C511.9 157.7 500 165.9 482.9 165.9C465.8 165.9 453.6 157.7 453.6 138.5V80.6H439.7ZM556.9 80.6H608.4C625.1 80.6 636 92.3 636 107.1C636 116.8 631.4 123.8 624.5 127.7C634.9 130.5 643 138.7 643 151.6C643 167.6 630.6 177.9 615.4 177.9H556.9V80.6ZM607.9 122.7C616.5 122.7 622.2 116.9 622.2 108.2C622.2 99.6 616.5 93.9 607.9 93.9H570.8V122.7H607.9ZM614.8 164.4C623.4 164.4 629.1 158.6 629.1 150C629.1 141.3 623.4 135.4 614.8 135.4H570.8V164.4H614.8ZM687.9 177.8V80.6H674V177.8H687.9ZM889.1 79.2C858.8 79.2 837.7 101.6 837.7 129.2C837.7 156.8 858.8 179.2 889.1 179.2C919.4 179.2 940.5 156.8 940.5 129.2C940.5 101.6 919.4 79.2 889.1 79.2ZM889.1 92.5C912 92.5 926.6 108.6 926.6 129.2C926.6 149.7 912 165.9 889.1 165.9C866.2 165.9 851.6 149.8 851.6 129.2C851.6 108.6 866.2 92.5 889.1 92.5ZM1057.7 80.6V177.8H1045.2L984.1 103.1V177.8H970.2V80.6H982.7L1043.8 155.5V80.6H1057.7Z" fill="black"></path></svg>